<?xml version="1.0" encoding="utf-8"?><svg xmlns="http://www.w3.org/2000/svg" xmlns:xlink="http://www.w3.org/1999/xlink"><symbol viewBox="0 0 22 19" id="cart" xmlns="http://www.w3.org/2000/svg"><path fill-rule="evenodd" d="M20.939 2.876l-4.226 7.381H7.67L7 11.743h10.502a1 1 0 010 2H7a2 2 0 01-1.823-2.821l1.05-2.333c.002-.003.005-.005.006-.008L3.17 2H1a1 1 0 010-2h3.446l3.842 8.257h7.266l3.649-6.374a1 1 0 111.736.993zM8 15a2 2 0 110 4 2 2 0 010-4zm8 0a2 2 0 110 4 2 2 0 010-4z"/></symbol><symbol viewBox="0 0 133 51" id="client-1" xmlns="http://www.w3.org/2000/svg"><path fill-rule="evenodd" d="M42.964 39.719l-17.15 9.901a5.36 5.36 0 01-5.356 0L3.309 39.719a5.357 5.357 0 01-2.678-4.638V15.278a5.357 5.357 0 012.678-4.638L20.458.738a5.36 5.36 0 015.356 0l17.15 9.902a5.358 5.358 0 012.677 4.638v19.803a5.358 5.358 0 01-2.677 4.638zM14.528 29.471c-1.288-1.426-2.025-2.81-1.895-4.292-.13-1.481.607-2.866 1.895-4.291h-.006a4.285 4.285 0 001.116-2.884 4.3 4.3 0 10-8.601 0c0 1.111.425 2.12 1.116 2.884h-.006c1.288 1.425 2.025 2.81 1.895 4.291.13 1.482-.607 2.866-1.895 4.292h.006a4.28 4.28 0 00-1.116 2.884 4.3 4.3 0 108.601 0 4.28 4.28 0 00-1.116-2.884h.006zm12.553-8.669h.011c-3.698-3.341-3.201-5.887-.765-8.583h-.007a4.276 4.276 0 001.117-2.883 4.3 4.3 0 10-8.602 0c0 1.111.425 2.12 1.117 2.883h-.007c2.437 2.696 2.934 5.242-.764 8.583h.01a5.878 5.878 0 000 8.754h-.01c3.698 3.342 3.201 5.888.764 8.584h.007a4.276 4.276 0 00-1.117 2.883 4.3 4.3 0 108.602 0c0-1.111-.425-2.12-1.117-2.883h.007c-2.436-2.696-2.933-5.242.765-8.584h-.011a5.873 5.873 0 001.954-4.377 5.875 5.875 0 00-1.954-4.377zm11.045 8.669c-1.289-1.426-2.026-2.81-1.896-4.292-.13-1.481.607-2.866 1.896-4.291h-.007a4.285 4.285 0 001.116-2.884 4.3 4.3 0 10-8.601 0 4.28 4.28 0 001.117 2.884h-.007c1.288 1.425 2.025 2.81 1.895 4.291.13 1.482-.607 2.866-1.895 4.292h.007a4.277 4.277 0 00-1.117 2.884 4.3 4.3 0 008.601 0 4.28 4.28 0 00-1.116-2.884h.007zm21.922-13.627v12.789c0 .845.329 1.338 1.009 1.338.47 0 .892-.165 1.314-.376l.165 2.605a7.655 7.655 0 01-2.769.539c-1.83 0-3.004-.891-3.004-3.308V15.844h3.285m15.816 16.895c-1.385 0-2.253-.563-2.605-1.783a5.103 5.103 0 01-3.895 1.76c-3.426 0-5.749-2.628-5.749-6.312 0-3.731 2.323-6.383 5.749-6.383 1.595 0 2.839.446 3.66 1.267v-1.056h3.286v8.495c0 .704.187 1.244.844 1.244.47 0 .845-.165 1.244-.376l.141 2.605c-.61.281-1.619.539-2.675.539zm-2.84-8.752c-.563-.587-1.642-1.103-2.745-1.103-2.042 0-3.332 1.408-3.332 3.52 0 2.065 1.314 3.472 3.332 3.472 1.079 0 2.088-.492 2.745-1.102v-4.787zm14.479 8.752c-1.666 0-2.863-.516-3.685-1.337v1.102h-3.285v-16.66h3.285v5.421c.845-.751 2.112-1.244 3.685-1.244 3.449 0 5.772 2.628 5.772 6.336 0 3.707-2.323 6.382-5.772 6.382zm-.916-9.855c-1.102 0-2.135.516-2.769 1.15v4.716c.564.563 1.62 1.126 2.769 1.126 2.018 0 3.333-1.407 3.333-3.519 0-2.089-1.315-3.473-3.333-3.473zm14.877 9.949c-3.801 0-6.57-2.745-6.57-6.429 0-3.731 2.769-6.5 6.57-6.5 3.849 0 6.618 2.769 6.618 6.5 0 3.684-2.769 6.429-6.618 6.429zm0-9.925c-2.018 0-3.402 1.525-3.402 3.496 0 1.924 1.384 3.426 3.402 3.426 2.065 0 3.45-1.502 3.45-3.426 0-1.971-1.385-3.496-3.45-3.496zm9.973 1.126c0-.728-.164-1.244-.845-1.244-.493 0-1.056.235-1.244.352l-.14-2.581c.164-.164 1.384-.54 2.675-.54 1.408 0 2.323.563 2.675 1.854.586-1.15 1.478-1.854 3.074-1.854 1.15 0 2.041.423 2.206.704l-.47 2.956c-.187-.258-1.126-.633-2.252-.633-1.573 0-2.183 1.361-2.394 2.792v6.664h-3.285v-8.47m20.931 3.379h-8.33c.305 1.713 1.408 2.675 3.402 2.675 1.549 0 2.981-.634 3.825-1.267l1.244 2.346c-1.267 1.033-3.074 1.666-5.162 1.666-4.623 0-6.688-2.816-6.688-6.429 0-3.661 2.534-6.5 6.476-6.5 3.731 0 5.491 2.276 5.491 5.115 0 .751-.117 1.924-.258 2.394zm-5.303-4.787c-1.76 0-2.699 1.055-2.933 2.252h5.326c.024-.117.024-.305.024-.422 0-.985-.751-1.83-2.417-1.83z"/></symbol><symbol viewBox="0 0 125 34" id="client-2" xmlns="http://www.w3.org/2000/svg"><path fill-rule="evenodd" d="M1.537 30.325a6.496 6.496 0 005.685 3.284 7.589 7.589 0 006.55-3.779l3.153-5.452H1.223a6.488 6.488 0 00.314 5.947m26.344-.5a7.587 7.587 0 006.553 3.784h.001a6.5 6.5 0 005.687-3.284 6.488 6.488 0 00.317-5.947H24.736l3.145 5.447m11.167-7.928l-5.639-9.764H8.255l-5.639 9.764h36.432M21.137.024h-.599a9.186 9.186 0 00-7.931 4.578l-2.918 5.05h22.289l-2.91-5.051A9.187 9.187 0 0021.137.024m41.29 25.386h-1.055c-.288 0-.416-.095-.416-.319l-.064-1.088h-.064c-.704 1.119-1.823 1.695-3.391 1.695h-1.599c-1.408 0-2.687-.416-3.423-1.151-.768-.768-1.152-1.76-1.152-3.008v-.959c0-1.951.864-3.391 2.495-4.031.736-.287 2.016-.448 3.839-.448h.96c.8 0 1.503.033 2.143.097v-1.824c0-2.335-1.184-3.135-3.871-3.135-1.119 0-2.207.16-3.295.48-.479.128-.735.128-.831-.256l-.16-.672c-.128-.383-.032-.608.352-.703 1.375-.416 2.751-.64 4.094-.64 4.095 0 5.79 1.375 5.79 4.702v10.941c0 .256-.064.319-.352.319zM60.7 17.957a15.912 15.912 0 00-1.919-.096h-1.792c-1.343 0-2.271.224-2.815.639-.544.417-.799 1.12-.799 2.112v.671c0 .992.223 1.664.671 2.08.416.384 1.056.576 1.952.576h1.311c2.143 0 3.391-1.152 3.391-3.327v-2.655zm6.429-13.851c0-.224.128-.352.384-.352h1.312c.256 0 .384.128.384.352V21.22c0 1.151.032 1.535.288 2.015.16.224.543.352 1.151.352h.864c.192 0 .384.032.384.352v1.088c0 .255-.096.383-.32.383H70.36c-1.151 0-1.983-.256-2.463-.735-.512-.544-.768-1.536-.768-2.943V4.106M76.63 7.24h-.128c-1.055 0-1.471-.479-1.471-1.535v-.192c0-1.023.575-1.503 1.471-1.503h.128c.928 0 1.408.511 1.408 1.503v.192c0 1.024-.544 1.535-1.408 1.535zm-.736 2.496h1.312c.256 0 .384.127.384.352v15.066c0 .161-.096.256-.288.256h-1.536c-.16 0-.256-.095-.256-.256V10.088c0-.225.128-.352.384-.352zm17.85 21.337h-1.44c-.224 0-.32-.128-.32-.353v-6.717h-.063c-.896 1.119-2.304 1.695-4.223 1.695-4.351 0-6.046-2.079-6.046-7.198v-1.503c0-5.662 1.887-7.549 6.142-7.549 2.047 0 3.487.64 4.35 1.919h.064l.16-1.247c.032-.257.192-.384.48-.384h.768c.352 0 .448.063.448.416V30.72c0 .225-.096.353-.32.353zm-1.76-15.739c0-2.591-1.471-4.095-4.158-4.095-1.408 0-2.239.288-2.879.96-.8.863-1.184 2.559-1.184 5.086v1.056c0 2.175.352 3.678 1.056 4.478.672.768 1.567 1.088 3.135 1.088 2.559 0 4.03-1.312 4.03-3.839v-4.734zm6.238-5.086c0-.288.192-.512.448-.512h1.183c.288 0 .448.16.448.447v10.461c0 1.28.224 1.984.832 2.495.544.512 1.503.768 2.879.768 1.312 0 2.303-.288 2.943-.896.544-.512.736-1.087.736-2.367V10.152c0-.256.16-.416.384-.416h1.343c.224 0 .352.127.352.416V20.9c0 1.631-.48 2.847-1.407 3.647-.928.8-2.176 1.151-4.351 1.151-1.983 0-3.423-.383-4.351-1.151-.959-.8-1.439-2.016-1.439-3.647V10.248m26.039 15.162h-1.056c-.288 0-.416-.095-.416-.319l-.064-1.088h-.063c-.704 1.119-1.824 1.695-3.391 1.695h-1.6c-1.407 0-2.687-.416-3.423-1.151-.767-.768-1.151-1.76-1.151-3.008v-.959c0-1.951.864-3.391 2.495-4.031.736-.287 2.015-.448 3.839-.448h.959c.8 0 1.504.033 2.144.097v-1.824c0-2.335-1.184-3.135-3.871-3.135-1.12 0-2.207.16-3.295.48-.48.128-.736.128-.832-.256l-.16-.672c-.128-.383-.032-.608.352-.703 1.376-.416 2.751-.64 4.095-.64 4.094 0 5.79 1.375 5.79 4.702v10.941c0 .256-.064.319-.352.319zm-1.727-7.453a15.919 15.919 0 00-1.92-.096h-1.791c-1.344 0-2.271.224-2.815.639-.544.417-.8 1.12-.8 2.112v.671c0 .992.224 1.664.672 2.08.416.384 1.056.576 1.951.576h1.312c2.143 0 3.391-1.152 3.391-3.327v-2.655z"/></symbol><symbol viewBox="0 0 125 33" id="client-3" xmlns="http://www.w3.org/2000/svg"><path fill-rule="evenodd" d="M32.278 23.87c-2.729 5.164-8.156 8.689-14.391 8.689H2.039V23.87h30.239m0-15.157H.639V.024h17.248c6.235 0 11.661 3.526 14.391 8.689m1.677 7.579c0 1.353-.177 2.706-.527 4.039H4.337v-8.078h29.091c.35 1.332.527 2.686.527 4.039m18.81 5.635l-.163-1.383c-.772 1.2-2.013 1.606-3.233 1.606-2.949 0-5.166-1.952-5.166-5.247 0-3.457 2.176-5.247 5.105-5.247 1.057 0 2.705.569 3.294 1.607V7.711h2.482v14.216h-2.319zm-3.234-7.952c-1.586 0-2.847 1.118-2.847 2.928 0 1.749 1.261 2.949 2.847 2.949 1.566 0 2.909-1.139 2.909-2.949 0-1.749-1.343-2.928-2.909-2.928zM67.347 11.9l-6.121 14.216H58.5l1.871-4.352-4.006-9.864h2.888l1.525 4.332.956 2.827 1.037-2.766 1.831-4.393h2.745m8.684 10.027v-5.248c0-1.525-.834-2.685-2.42-2.685-1.525 0-2.562 1.282-2.562 2.807v5.126h-2.461V11.88h2.216l.163 1.362c1.017-.996 2.034-1.505 3.295-1.505 2.359 0 4.25 1.77 4.25 4.922v5.268h-2.481m12.61 0l-.122-1.465c-.57 1.179-2.136 1.749-3.254 1.769-2.97.021-5.166-1.809-5.166-5.328 0-3.457 2.298-5.268 5.226-5.247 1.343 0 2.624.63 3.194 1.627L88.6 11.9h2.379v10.027h-2.338zm-3.092-8.054c-1.647 0-2.969 1.118-2.969 3.03 0 1.912 1.322 3.051 2.969 3.051 3.905 0 3.905-6.081 0-6.081zm14.39 8.054v-5.37c0-1.321-.691-2.521-2.054-2.521-1.342 0-2.135 1.2-2.135 2.521v5.37h-2.482V11.88h2.299l.183 1.22c.529-1.017 1.688-1.383 2.644-1.383 1.2 0 2.399.488 2.969 1.871.895-1.424 2.054-1.83 3.356-1.83 2.847 0 4.25 1.749 4.25 4.759v5.41h-2.481v-5.41c0-1.323-.549-2.441-1.891-2.441-1.343 0-2.177 1.16-2.177 2.481v5.37h-2.481m11.134-12.854c0-1.932 2.929-1.932 2.929 0s-2.929 1.932-2.929 0zm2.705 12.854h-2.481V11.859h2.481v10.068zm10.84-1.282c-1.159 1.139-2.38 1.586-3.864 1.586-2.909 0-5.329-1.748-5.329-5.308 0-3.559 2.42-5.308 5.329-5.308 1.423 0 2.522.407 3.62 1.485l-1.566 1.647a3.045 3.045 0 00-2.014-.793c-1.667 0-2.888 1.22-2.888 2.969 0 1.912 1.302 2.929 2.848 2.929.793 0 1.586-.224 2.196-.834l1.668 1.627"/></symbol><symbol viewBox="0 0 109 53" id="client-4" xmlns="http://www.w3.org/2000/svg"><path fill-rule="evenodd" d="M18.378 11.207l-2.079 7.129H26.99L.658 52.984l6.93-24.254H1.053L7.389.021H40.85l-8.414 11.186H18.378m28.183 4.992c1.218 0 2.094.195 2.825.536l-.414 2.655c-.414-.195-.998-.341-1.729-.341-1.242 0-2.314.438-2.533 1.851l-.171.999h3.556l-.438 2.849h-3.58l-1.389 8.842h-3.385l1.412-8.842h-2.021l.462-2.849h1.998l.219-1.34c.536-3.434 2.996-4.36 5.188-4.36m14.736 5.7L59.445 33.59h-2.971l.243-1.511c-.998 1.145-2.411 1.852-4.043 1.852-3.02 0-4.554-2.192-4.116-4.92l1.121-7.112h3.361l-1.072 6.892c-.268 1.584.511 2.217 1.729 2.217 1.316 0 2.412-.78 3.045-1.559l1.193-7.55h3.362M74.62 33.37c-.682 4.287-3.946 5.919-7.38 5.919-2.046 0-3.776-.487-5.018-1.193l.463-2.85c1.169.804 2.606 1.193 4.238 1.193 2.095 0 3.946-.852 4.311-3.117l.171-1.072c-.634.78-1.9 1.681-3.971 1.681-3.702 0-5.382-3.093-4.846-6.406.487-3.069 2.922-5.968 6.503-5.968 1.973 0 3.264.853 3.994 2.193l.317-1.851h3.02L74.62 33.37zm-4.872-8.963c-2.021 0-3.483 1.437-3.799 3.435-.268 1.704.584 3.239 2.435 3.239 1.584 0 2.85-.95 3.508-1.997l.463-2.85c-.293-.998-1.243-1.827-2.607-1.827zm13.835-6.162c-.195 1.218-1.121 1.729-2.119 1.729-1.121 0-2.022-.706-1.802-2.143.194-1.218 1.12-1.73 2.119-1.73 1.144 0 2.021.731 1.802 2.144zM80.855 33.59h-3.386l1.852-11.691h3.385L80.855 33.59zm15.174 0h-2.972l.268-1.73c-.901 1.145-2.338 2.071-4.408 2.071-3.702 0-5.383-3.093-4.847-6.406.487-3.069 2.874-5.968 6.503-5.968 2.143 0 3.41 1.145 4.019 2.29l.317-1.948h2.971L96.029 33.59zm-4.798-9.183c-2.022 0-3.483 1.486-3.8 3.41-.268 1.729.585 3.264 2.436 3.264 1.583 0 2.849-.999 3.507-2.046l.463-2.728c-.268-1.047-1.218-1.9-2.606-1.9zm14.321-6.722l-.657 4.214h3.702l-.463 2.849h-3.702l-.755 4.677c-.195 1.242.292 1.656 1.534 1.656.829 0 1.559-.146 2.266-.439l-.439 2.777c-.731.317-1.875.512-3.044.512-2.217 0-4.19-1.145-3.727-4.044l.804-5.139h-1.973l.463-2.849h1.948l.56-3.386 3.483-.828"/></symbol><symbol viewBox="0 0 16 12" id="email" xmlns="http://www.w3.org/2000/svg"><path fill-rule="evenodd" d="M13.333 12H2.667c-1.102 0-2-.899-2-2.001L.673 2c0-1.102.892-2 1.994-2h10.666c1.102 0 2 .898 2 2v8c0 1.101-.898 2-2 2zm-.643-9.011a.666.666 0 00-.915-.227L7.98 5.049 4.344 2.858A.666.666 0 103.656 4l4.346 2.619.005-.007 4.458-2.706a.668.668 0 00.225-.917z"/></symbol><symbol viewBox="0 0 6 12" id="facebook" xmlns="http://www.w3.org/2000/svg"><path fill-rule="evenodd" d="M5.199 6.084H3.571v5.876H1.157V6.084H.01V4.008h1.147V2.665C1.157 1.703 1.609.2 3.593.2l1.788.007v2.015H4.083c-.211 0-.512.107-.512.566v1.22H5.41l-.211 2.076z"/></symbol><symbol viewBox="0 0 12 12" id="instagram" xmlns="http://www.w3.org/2000/svg"><path fill-rule="evenodd" d="M9.604 11.96H2.475C1.237 11.96.23 10.941.23 9.687V2.472C.23 1.219 1.237.2 2.475.2h7.129c1.238 0 2.245 1.019 2.245 2.272v7.215c0 1.254-1.007 2.273-2.245 2.273zM7.698 4.873a2.032 2.032 0 00-1.657-.864c-.683 0-1.287.342-1.659.863-.242.34-.387.756-.387 1.207-.001 1.141.917 2.07 2.044 2.07s2.046-.929 2.046-2.07c0-.45-.145-.866-.387-1.206zm2.807-3.061v-.258l-.256.001-1.714.005.007 1.994 1.963-.007V1.812zm.212 3.061H8.981c.151.372.237.78.237 1.206 0 1.773-1.426 3.216-3.178 3.216-1.753 0-3.178-1.443-3.178-3.216 0-.426.084-.834.234-1.206H1.361v4.814c0 .622.5 1.126 1.114 1.126h7.128a1.12 1.12 0 001.114-1.126V4.873z"/></symbol><symbol viewBox="0 0 73 20" id="logo" xmlns="http://www.w3.org/2000/svg"><path fill-rule="evenodd" d="M68.448 19a460.498 460.498 0 00-.208-5.72 155.664 155.664 0 00-.39-6.24c-.312.728-.659 1.534-1.04 2.418-.381.884-.759 1.768-1.131 2.651-.373.884-.733 1.73-1.079 2.536-.347.806-.641 1.495-.884 2.067h-2.834c-.243-.572-.537-1.261-.884-2.067-.347-.806-.706-1.652-1.079-2.536-.373-.883-.75-1.767-1.131-2.651-.381-.884-.728-1.69-1.04-2.418a153.83 153.83 0 00-.39 6.24A460.498 460.498 0 0056.15 19h-3.952c.069-1.422.151-2.938.247-4.55.095-1.612.199-3.22.312-4.824.113-1.603.242-3.145.39-4.627.147-1.482.308-2.821.481-4.017h3.874c.312.572.672 1.278 1.079 2.119.407.84.832 1.75 1.274 2.73.442.979.88 1.98 1.313 3.003l1.222 2.885c.381-.901.788-1.863 1.222-2.885.433-1.023.871-2.024 1.313-3.003.442-.98.867-1.89 1.274-2.73.407-.841.767-1.547 1.079-2.119h3.692c.173 1.196.333 2.535.481 4.017.147 1.482.277 3.024.39 4.627A445.6 445.6 0 0172.4 19h-3.952zm-23.881-1.794a47.22 47.22 0 00-2.093-3.393 17.692 17.692 0 00-1.04-1.392h-2.002V19h-4.056V1.242a22.782 22.782 0 012.743-.364c.944-.07 1.789-.104 2.535-.104 2.704 0 4.775.481 6.214 1.443 1.439.962 2.158 2.457 2.158 4.485 0 1.265-.291 2.292-.871 3.081-.581.788-1.417 1.408-2.509 1.858.364.451.745.967 1.144 1.548.398.58.793 1.187 1.183 1.82.39.632.767 1.291 1.131 1.976.364.684.702 1.356 1.014 2.015h-4.55l-1.001-1.794zm-.728-12.415c-.667-.373-1.651-.559-2.951-.559-.295 0-.559.008-.793.025l-.663.052v4.889h1.144c1.525 0 2.617-.191 3.276-.572.658-.382.988-1.032.988-1.95 0-.885-.334-1.513-1.001-1.885zM29.422 16.985a7.755 7.755 0 01-2.847 1.781 10.362 10.362 0 01-3.549.598c-1.231 0-2.392-.2-3.484-.598a8.028 8.028 0 01-2.86-1.781c-.815-.789-1.456-1.768-1.924-2.938-.468-1.17-.702-2.527-.702-4.069 0-1.543.242-2.899.728-4.069.485-1.17 1.14-2.154 1.963-2.951a8.054 8.054 0 012.86-1.794 9.812 9.812 0 013.419-.598c1.23 0 2.392.199 3.484.598a7.908 7.908 0 012.86 1.794c.815.797 1.456 1.781 1.924 2.951.468 1.17.702 2.526.702 4.069 0 1.542-.23 2.899-.689 4.069-.459 1.17-1.088 2.149-1.885 2.938zm-1.937-9.413c-.217-.719-.529-1.334-.936-1.845a4.1 4.1 0 00-1.508-1.183c-.598-.278-1.27-.416-2.015-.416-.763 0-1.439.143-2.028.429a4.265 4.265 0 00-1.495 1.196c-.408.511-.72 1.126-.936 1.845-.217.72-.325 1.513-.325 2.38 0 .884.108 1.681.325 2.391.216.711.528 1.322.936 1.834.407.511.906.905 1.495 1.183.589.277 1.265.416 2.028.416.745 0 1.417-.139 2.015-.416a4.122 4.122 0 001.508-1.183c.407-.512.719-1.123.936-1.834.216-.71.325-1.507.325-2.391 0-.884-.109-1.686-.325-2.406zm-23.309.586H11.3v3.405H4.176V19H.12V.982h12.064v3.405H4.176v3.771z"/></symbol><symbol viewBox="0 0 12 12" id="phone" xmlns="http://www.w3.org/2000/svg"><path fill-rule="evenodd" d="M2.413 5.193a10.093 10.093 0 004.394 4.393L8.273 8.12c.18-.18.447-.24.68-.16.747.246 1.554.38 2.38.38.367 0 .667.3.667.666v2.327c0 .367-.3.667-.667.667C5.073 12 0 6.926 0 .666 0 .3.3 0 .667 0H3c.367 0 .667.3.667.666 0 .834.133 1.634.38 2.38a.669.669 0 01-.167.68L2.413 5.193z"/></symbol><symbol viewBox="0 0 21 16" id="twitter" xmlns="http://www.w3.org/2000/svg"><path fill-rule="evenodd" d="M16.507 2.493l-.037-.026c-.769-.731-1.674-1.078-2.716-1.029l-.037-.074.025-.013c.942-.211 1.5-.434 1.674-.682.05-.199-.012-.31-.223-.334-.472.061-.918.161-1.302.322.496-.322.682-.546.57-.658-.484.013-1.017.261-1.563.757.199-.347.286-.546.236-.57a3.622 3.622 0 00-.695.582c-.421.472-.756.906-1.017 1.303l-.012.025c-.657 1.079-1.129 2.157-1.401 3.262l-.1.086-.024.013a5.249 5.249 0 00-1.452-1.253c-.669-.447-1.463-.856-2.381-1.265a19.895 19.895 0 00-3.026-1.278c-.012 1.154.558 2.059 1.662 2.729v.012c-.385 0-.769.062-1.141.174.074 1.067.831 1.799 2.257 2.195l-.012.025a1.607 1.607 0 00-1.377.571c.471.917 1.302 1.352 2.505 1.327-.235.124-.421.248-.545.397a.838.838 0 00-.224.818c.261.471.72.682 1.402.645l.037.05-.012.025c-1.179 1.215-2.605 1.76-4.267 1.649l-.025.012c-1.017-.012-2.108-.496-3.286-1.463 1.178 1.699 2.753 2.927 4.7 3.708 2.22.732 4.453.794 6.673.162h.037c2.158-.621 3.981-1.911 5.494-3.845.695-1.005 1.129-1.972 1.303-2.902 1.128.037 1.934-.286 2.443-.98l-.013-.025c-.384.136-1.116.099-2.195-.124v-.124c1.191-.137 1.898-.521 2.121-1.154-.831.323-1.65.335-2.456.025-.148-1.116-.682-2.145-1.6-3.075"/></symbol><symbol viewBox="0 0 18 20" id="user" xmlns="http://www.w3.org/2000/svg"><path fill-rule="evenodd" d="M17 20a1 1 0 01-1-1v-2c0-1.46-3.844-3-7-3s-7 1.54-7 3v2a1 1 0 01-2 0v-2c0-3.065 4.831-5 9-5s9 1.935 9 5v2a1 1 0 01-1 1zM9 10a5 5 0 01-5-5c0-2.763 2.238-5 5-5s5 2.237 5 5a5 5 0 01-5 5zm0-8a3 3 0 103 3c0-1.658-1.342-3-3-3z"/></symbol></svg>